<?xml version="1.0" encoding="UTF-8" standalone="no"?>
<!-- Created with Inkscape (http://www.inkscape.org/) -->

<svg
   xmlns:dc="http://purl.org/dc/elements/1.1/"
   xmlns:cc="http://creativecommons.org/ns#"
   xmlns:rdf="http://www.w3.org/1999/02/22-rdf-syntax-ns#"
   xmlns:svg="http://www.w3.org/2000/svg"
   xmlns="http://www.w3.org/2000/svg"
   xmlns:sodipodi="http://sodipodi.sourceforge.net/DTD/sodipodi-0.dtd"
   xmlns:inkscape="http://www.inkscape.org/namespaces/inkscape"
   width="744.09448819"
   height="1052.3622047"
   id="svg2"
   version="1.1"
   inkscape:version="0.48.4 r9939"
   sodipodi:docname="drawing.svg">
  <defs
     id="defs4" />
  <sodipodi:namedview
     id="base"
     pagecolor="#ffffff"
     bordercolor="#666666"
     borderopacity="1.0"
     inkscape:pageopacity="0.0"
     inkscape:pageshadow="2"
     inkscape:zoom="0.98994949"
     inkscape:cx="208.60517"
     inkscape:cy="529.53355"
     inkscape:document-units="px"
     inkscape:current-layer="layer1"
     showgrid="false"
     inkscape:window-width="744"
     inkscape:window-height="421"
     inkscape:window-x="576"
     inkscape:window-y="26"
     inkscape:window-maximized="0" />
  <metadata
     id="metadata7">
    <rdf:RDF>
      <cc:Work
         rdf:about="">
        <dc:format>image/svg+xml</dc:format>
        <dc:type
           rdf:resource="http://purl.org/dc/dcmitype/StillImage" />
        <dc:title></dc:title>
      </cc:Work>
    </rdf:RDF>
  </metadata>
  <g
     inkscape:label="Layer 1"
     inkscape:groupmode="layer"
     id="layer1">
    <rect
       style="fill:#ececec;stroke:#000000;stroke-opacity:1"
       id="rect2985"
       width="519.21838"
       height="414.16254"
       x="125.25892"
       y="316.97113" />
    <rect
       style="fill:#008080;stroke:none"
       id="rect2987"
       width="96.974648"
       height="224.25386"
       x="231.28432"
       y="413.96609" />
    <rect
       style="fill:#008080;stroke:none"
       id="rect2987-5"
       width="96.974648"
       height="224.25386"
       x="444.15744"
       y="413.94577" />
    <path
       style="fill:none;stroke:#000000;stroke-width:1.2;stroke-linecap:butt;stroke-linejoin:miter;stroke-opacity:1;stroke-miterlimit:4;stroke-dasharray:none"
       d="m 184.85792,370.50921 404.06101,0 0,309.10668 -405.07117,0 0,-318.19805 z"
       id="path3841"
       inkscape:connector-curvature="0" />
    <path
       sodipodi:type="arc"
       style="fill:#ececec;stroke:#000000;stroke-width:5.45329666000000035;stroke-miterlimit:4;stroke-opacity:1;stroke-dasharray:none;fill-opacity:1"
       id="path3013-9"
       sodipodi:cx="387.89859"
       sodipodi:cy="371.51938"
       sodipodi:rx="45.456863"
       sodipodi:ry="45.456863"
       d="m 433.35545,371.51938 a 45.456863,45.456863 0 1 1 -90.91372,0 45.456863,45.456863 0 1 1 90.91372,0 z"
       transform="matrix(-0.55012595,0,0,-0.55012595,398.75612,885.3902)" />
    <path
       sodipodi:type="arc"
       style="fill:#ececec;stroke:#000000;stroke-width:5.45329666000000035;stroke-miterlimit:4;stroke-opacity:1;stroke-dasharray:none;fill-opacity:1"
       id="path3013-1"
       sodipodi:cx="387.89859"
       sodipodi:cy="371.51938"
       sodipodi:rx="45.456863"
       sodipodi:ry="45.456863"
       d="m 433.35545,371.51938 a 45.456863,45.456863 0 1 1 -90.91372,0 45.456863,45.456863 0 1 1 90.91372,0 z"
       transform="matrix(-0.55012595,0,0,-0.55012595,398.75612,575.90182)" />
    <path
       style="fill:none;stroke:#000000;stroke-width:1.2;stroke-linecap:butt;stroke-linejoin:miter;stroke-opacity:1;stroke-miterlimit:4;stroke-dasharray:none"
       d="m 388.88842,370.50921 0,310.11684 z"
       id="path3853"
       inkscape:connector-curvature="0" />
    <path
       sodipodi:type="arc"
       style="fill:#ececec;stroke:#000000;stroke-width:5.45329666000000035;stroke-miterlimit:4;stroke-opacity:1;stroke-dasharray:none;fill-opacity:1"
       id="path3013-4"
       sodipodi:cx="387.89859"
       sodipodi:cy="371.51938"
       sodipodi:rx="45.456863"
       sodipodi:ry="45.456863"
       d="m 433.35545,371.51938 a 45.456863,45.456863 0 1 1 -90.91372,0 45.456863,45.456863 0 1 1 90.91372,0 z"
       transform="matrix(-0.55012595,0,0,-0.55012595,601.92018,575.90182)" />
    <path
       sodipodi:type="arc"
       style="fill:#ececec;stroke:#000000;stroke-width:5.45329666000000035;stroke-miterlimit:4;stroke-opacity:1;stroke-dasharray:none;fill-opacity:1"
       id="path3013-47"
       sodipodi:cx="387.89859"
       sodipodi:cy="371.51938"
       sodipodi:rx="45.456863"
       sodipodi:ry="45.456863"
       d="m 433.35545,371.51938 a 45.456863,45.456863 0 1 1 -90.91372,0 45.456863,45.456863 0 1 1 90.91372,0 z"
       transform="matrix(-0.55012595,0,0,-0.55012595,801.30191,575.90182)" />
    <path
       sodipodi:type="arc"
       style="fill:#ececec;stroke:#000000;stroke-width:5.45329666000000035;stroke-miterlimit:4;stroke-opacity:1;stroke-dasharray:none;fill-opacity:1"
       id="path3013-0"
       sodipodi:cx="387.89859"
       sodipodi:cy="371.51938"
       sodipodi:rx="45.456863"
       sodipodi:ry="45.456863"
       d="m 433.35545,371.51938 a 45.456863,45.456863 0 1 1 -90.91372,0 45.456863,45.456863 0 1 1 90.91372,0 z"
       transform="matrix(-0.55012595,0,0,-0.55012595,801.30191,885.3902)" />
    <path
       sodipodi:type="arc"
       style="fill:#ececec;stroke:#000000;stroke-width:5.45329666000000035;stroke-miterlimit:4;stroke-opacity:1;stroke-dasharray:none;fill-opacity:1"
       id="path3013"
       sodipodi:cx="387.89859"
       sodipodi:cy="371.51938"
       sodipodi:rx="45.456863"
       sodipodi:ry="45.456863"
       d="m 433.35545,371.51938 a 45.456863,45.456863 0 1 1 -90.91372,0 45.456863,45.456863 0 1 1 90.91372,0 z"
       transform="matrix(-0.55012595,0,0,-0.55012595,601.92018,885.3902)" />
  </g>
</svg>
